<svg xmlns="http://www.w3.org/2000/svg" viewBox="0 0 220 110" fill="white">
  <path d="M175 55 L170 42 L148 28 L108 24 L80 24 L57 33 L33 42 L18 55 L18 70 L28 70 L28 63 Q38 50 53 50 Q68 50 78 63 L118 63 Q128 50 143 50 Q158 50 168 63 L175 63 Z"/>
  <circle cx="53" cy="65" r="11" fill="none" stroke="white" stroke-width="5"/>
  <circle cx="143" cy="65" r="11" fill="none" stroke="white" stroke-width="5"/>
  <path d="M85 32 L110 32 L124 46 L65 46 Z" opacity="0.6"/>
  <path d="M62 34 L84 34 L84 46 L48 46 Z" opacity="0.6"/>
  <circle cx="195" cy="28" r="14" fill="none" stroke="white" stroke-width="5"/>
  <rect x="201" y="28" width="18" height="7" rx="3"/>
  <rect x="205" y="35" width="4" height="8" rx="1"/>
  <rect x="212" y="35" width="4" height="8" rx="1"/>
</svg>